<svg xmlns="http://www.w3.org/2000/svg" viewBox="0 0 100 100" width="100" height="100">
  <defs>
    <linearGradient id="goldGrad" x1="0%" y1="0%" x2="100%" y2="100%">
      <stop offset="0%" stop-color="#FFD54F" />
      <stop offset="100%" stop-color="#F9A825" />
    </linearGradient>
    <filter id="glow">
      <feGaussianBlur stdDeviation="1.5" result="coloredBlur"/>
      <feMerge>
        <feMergeNode in="coloredBlur"/>
        <feMergeNode in="SourceGraphic"/>
      </feMerge>
    </filter>
  </defs>
  <path fill="url(#goldGrad)" filter="url(#glow)" d="M75,85 H25 C22,85 20,83 20,80 V75 C20,72 22,70 25,70 H75 C78,70 80,72 80,75 V80 C80,83 78,85 75,85 Z M70,68 H30 L35,55 H65 L70,68 Z M62,53 C62,53 68,30 55,20 C42,10 32,18 28,25 C25,30 25,35 30,40 C35,45 42,42 42,42 C42,42 35,30 45,28 C55,26 58,40 58,53 Z M50,15 L62,8 L58,22 Z" />
</svg>
